<?xml version="1.0" encoding="iso-8859-1"?>
<!-- Uploaded to: SVG Repo, www.svgrepo.com, Generator: SVG Repo Mixer Tools -->
<!DOCTYPE svg PUBLIC "-//W3C//DTD SVG 1.1//EN" "http://www.w3.org/Graphics/SVG/1.1/DTD/svg11.dtd">
<svg fill="#000000" height="800px" width="800px" version="1.1" id="Capa_1" xmlns="http://www.w3.org/2000/svg" xmlns:xlink="http://www.w3.org/1999/xlink" 
	 viewBox="0 0 447.047 447.047" xml:space="preserve">
<g>
	<path d="M360.448,188.033c-19.231-19.231-44.801-29.822-71.998-29.822c-11.521,0-22.743,1.92-33.322,5.573l4.067-6.44
		c2.949-4.669,1.555-10.846-3.115-13.795c-4.67-2.95-10.846-1.554-13.795,3.115l-9.758,15.451
		c-1.071-9.775-3.002-19.359-5.766-28.661C289.72,127.59,339.17,74.465,339.17,10c0-5.523-4.478-10-10-10
		c-57.974,0-106.776,39.994-120.283,93.839c-6.533-10.451-14.294-20.238-23.225-29.168c-3.906-3.905-10.236-3.905-14.143,0
		c-3.905,3.905-3.905,10.237,0,14.143c21.721,21.721,35.607,49.184,40.26,78.963l-7.015-11.111
		c-2.948-4.669-9.124-6.066-13.794-3.118c-4.671,2.948-6.066,9.125-3.118,13.794l4.067,6.441
		c-10.579-3.653-21.801-5.573-33.323-5.573c-27.197,0-52.766,10.591-71.997,29.823c-39.698,39.699-39.698,104.295,0,143.995
		l99.53,99.53c9.988,9.988,23.268,15.489,37.394,15.489c14.125,0,27.405-5.501,37.394-15.489l99.53-99.531
		C400.146,292.329,400.146,227.733,360.448,188.033z M318.641,20.529c-4.943,48.959-43.982,87.999-92.941,92.942
		C230.643,64.512,269.682,25.472,318.641,20.529z M346.305,317.886l-99.53,99.53c-6.211,6.211-14.468,9.631-23.251,9.631
		s-17.041-3.42-23.251-9.631l-99.53-99.53c-31.901-31.902-31.901-83.809,0-115.711c15.453-15.454,36-23.964,57.854-23.964
		s42.401,8.511,57.855,23.965c1.876,1.875,4.419,2.929,7.071,2.929s5.195-1.054,7.071-2.929c15.453-15.454,36-23.964,57.854-23.964
		s42.401,8.511,57.855,23.964C378.206,234.077,378.206,285.984,346.305,317.886z"/>
	<path d="M177.659,197.424c-5.522,0-10,4.477-10,10v16.5c0,5.523,4.478,10,10,10s10-4.477,10-10v-16.5
		C187.659,201.901,183.182,197.424,177.659,197.424z"/>
	<path d="M121.659,228.174c-5.522,0-10,4.477-10,10v16.5c0,5.523,4.478,10,10,10s10-4.477,10-10v-16.5
		C131.659,232.651,127.182,228.174,121.659,228.174z"/>
	<path d="M167.659,286.174c-5.522,0-10,4.477-10,10v16.5c0,5.523,4.478,10,10,10s10-4.477,10-10v-16.5
		C177.659,290.651,173.182,286.174,167.659,286.174z"/>
	<path d="M247.659,258.174c0-5.523-4.478-10-10-10s-10,4.477-10,10v16.5c0,5.523,4.478,10,10,10s10-4.477,10-10V258.174z"/>
	<path d="M291.659,202.174c-5.522,0-10,4.477-10,10v16.5c0,5.523,4.478,10,10,10s10-4.477,10-10v-16.5
		C301.659,206.651,297.182,202.174,291.659,202.174z"/>
	<path d="M315.659,276.674c-5.522,0-10,4.477-10,10v16.5c0,5.523,4.478,10,10,10s10-4.477,10-10v-16.5
		C325.659,281.151,321.182,276.674,315.659,276.674z"/>
	<path d="M255.659,328.174c-5.522,0-10,4.477-10,10v16.5c0,5.523,4.478,10,10,10s10-4.477,10-10v-16.5
		C265.659,332.651,261.182,328.174,255.659,328.174z"/>
	<path d="M207.659,356.174c-5.522,0-10,4.477-10,10v16.5c0,5.523,4.478,10,10,10s10-4.477,10-10v-16.5
		C217.659,360.651,213.182,356.174,207.659,356.174z"/>
</g>
</svg>